<svg width="525" height="347" viewBox="0 0 525 347" fill="none" xmlns="http://www.w3.org/2000/svg">
<path d="M412.909 121.708C390.507 51.52 324.799 0 247.149 0C151.575 0 73.9219 77.6506 73.9219 173.227C73.9219 176.211 73.9219 179.201 74.6667 182.185C32.8547 185.919 0 221.758 0 264.321C0 309.868 37.3333 346.457 82.136 346.457H392.749C395.734 346.457 398.723 346.457 401.708 345.712C404.692 345.712 408.427 346.457 411.416 346.457C473.389 346.457 524.161 295.686 524.161 233.712C524.161 172.477 474.135 122.452 412.911 121.706L412.909 121.708ZM324.799 256.855L274.029 307.625C271.789 309.865 268.799 311.36 265.815 312.105H262.081H258.346C255.362 311.36 252.372 309.865 250.133 307.625L199.362 256.855C192.643 250.136 192.643 239.683 199.362 233.709C206.081 226.991 216.534 226.991 223.258 233.709L244.909 255.36V141.871C244.909 132.162 252.377 124.699 262.081 124.699C271.789 124.699 279.253 132.167 279.253 141.871V254.616L300.903 232.965C307.622 226.247 318.075 226.247 324.799 232.965C331.518 239.684 331.518 250.137 324.799 256.856V256.855Z" fill="white"/>
</svg>
